<svg viewBox="0 0 24 24" fill="none" xmlns="http://www.w3.org/2000/svg">
                      <path
                        d="M8 12h.01M12 12h.01M16 12h.01M21 12c0 4.418-4.03 8-9 8a9.003 9.003 0 00-8.682-4.947 9.82 9.82 0 00-8.682 4.947C4.03 16.418 0 12.418 0 8c0-4.418 4.03-8 9-8a9.003 9.003 0 018.682 4.947 9.82 9.82 0 018.682-4.947C21.97 16.418 26 12.418 26 8c0-4.418-4.03-8-9-8z"
                        stroke="currentColor"
                        stroke-width="2"
                        stroke-linecap="round"
                        stroke-linejoin="round"
                      />
                    </svg>