<svg viewBox="0 0 24 24" fill="none" xmlns="http://www.w3.org/2000/svg">
          <path d="M10.3 4.3c.4-1.8 2.9-1.8 3.4 0a1.7 1.7 0 0 0 2.6 1.1c1.5-.9 3.3.8 2.4 2.3a1.7 1.7 0 0 0 1.1 2.6c1.7.4 1.7 2.9 0 3.3a1.7 1.7 0 0 0-1.1 2.6c.9 1.5-.8 3.3-2.3 2.4a1.7 1.7 0 0 0-2.6 1.1c-.5 1.7-2.9 1.7-3.4 0a1.7 1.7 0 0 0-2.6-1.1c-1.5.9-3.3-.8-2.4-2.3a1.7 1.7 0 0 0-1.1-2.6c-1.7-.4-1.7-2.9 0-3.3a1.7 1.7 0 0 0 1.1-2.6c-.9-1.5.8-3.3 2.3-2.4.6.4 1.4.1 1.7-.6Z" stroke="currentColor" stroke-width="1.9" stroke-linecap="round" stroke-linejoin="round" />
          <path d="M15 12a3 3 0 1 1-6 0 3 3 0 0 1 6 0Z" stroke="currentColor" stroke-width="1.9" stroke-linecap="round" stroke-linejoin="round" />
        </svg>
