<svg viewBox="0 0 24 24" fill="none" xmlns="http://www.w3.org/2000/svg">
  <path d="M8.4 11.1a3.1 3.1 0 1 0 0-6.2 3.1 3.1 0 0 0 0 6.2Z" stroke="currentColor" stroke-width="1.9" />
  <path d="M15.8 10a2.5 2.5 0 1 0 0-5 2.5 2.5 0 0 0 0 5Z" stroke="currentColor" stroke-width="1.9" />
  <path d="M4.4 20v-1c0-2.2 1.8-4 4-4h.4c2.2 0 4 1.8 4 4v1" stroke="currentColor" stroke-width="1.9" stroke-linecap="round" stroke-linejoin="round" />
  <path d="M13.3 18.7v-.6c0-1.7 1.3-3 3-3h.2c1.7 0 3 1.3 3 3v.6" stroke="currentColor" stroke-width="1.9" stroke-linecap="round" stroke-linejoin="round" />
</svg>