<svg xmlns="http://www.w3.org/2000/svg" viewBox="0 0 24 24" fill="none">
  <path d="M16.5 11.2a2.7 2.7 0 1 0 0-5.4 2.7 2.7 0 0 0 0 5.4Z" stroke="#0F5B35" stroke-width="1.9"/>
  <path d="M8.2 11.5a3.2 3.2 0 1 0 0-6.4 3.2 3.2 0 0 0 0 6.4Z" stroke="#0F5B35" stroke-width="1.9"/>
  <path d="M4.5 19.8v-.8c0-2.3 1.8-4.2 4.2-4.2h.3c2.3 0 4.2 1.9 4.2 4.2v.8" stroke="#0F5B35" stroke-width="1.9" stroke-linecap="round" stroke-linejoin="round"/>
  <path d="M13.8 18.8v-.6c0-1.8 1.4-3.2 3.2-3.2h.2c1.8 0 3.2 1.4 3.2 3.2v.6" stroke="#0F5B35" stroke-width="1.9" stroke-linecap="round" stroke-linejoin="round"/>
</svg>