<svg xmlns="http://www.w3.org/2000/svg" viewBox="0 0 24 24" fill="none">
  <path d="M12 15.5a3.5 3.5 0 1 0 0-7 3.5 3.5 0 0 0 0 7Z" stroke="#173326" stroke-width="1.9"/>
  <path d="M19.4 15a7.9 7.9 0 0 0 .1-1 7.9 7.9 0 0 0-.1-1l2.1-1.6-2-3.4-2.5 1a7.6 7.6 0 0 0-1.7-1l-.4-2.7H9.1l-.4 2.7a7.6 7.6 0 0 0-1.7 1l-2.5-1-2 3.4L4.6 13a7.9 7.9 0 0 0-.1 1 7.9 0 0 0 .1 1L2.5 16.6l2 3.4 2.5-1a7.6 7.6 0 0 0 1.7 1l.4 2.7h5.8l.4-2.7a7.6 7.6 0 0 0 1.7-1l2.5 1 2-3.4L19.4 15Z" stroke="#173326" stroke-width="1.4" stroke-linejoin="round"/>
</svg>