<svg width="24" height="24" viewBox="0 0 24 24" fill="none" xmlns="http://www.w3.org/2000/svg">
  <path d="M16.5 11.25C18.1569 11.25 19.5 9.90685 19.5 8.25C19.5 6.59315 18.1569 5.25 16.5 5.25C14.8431 5.25 13.5 6.59315 13.5 8.25C13.5 9.90685 14.8431 11.25 16.5 11.25Z" stroke="#0F5132" stroke-width="1.8"/>
  <path d="M4.5 19V17.75C4.5 15.6789 6.17893 14 8.25 14H10.25C12.3211 14 14 15.6789 14 17.75V19" stroke="#0F5132" stroke-width="1.8" stroke-linecap="round"/>
  <path d="M8.25 11.5C10.0449 11.5 11.5 10.0449 11.5 8.25C11.5 6.45507 10.0449 5 8.25 5C6.45507 5 5 6.45507 5 8.25C5 10.0449 6.45507 11.5 8.25 11.5Z" stroke="#0F5132" stroke-width="1.8"/>
</svg>
