<svg width="24" height="24" viewBox="0 0 24 24" fill="none" xmlns="http://www.w3.org/2000/svg">
  <path d="M12 15.25C13.7949 15.25 15.25 13.7949 15.25 12C15.25 10.2051 13.7949 8.75 12 8.75C10.2051 8.75 8.75 10.2051 8.75 12C8.75 13.7949 10.2051 15.25 12 15.25Z" stroke="#0F5132" stroke-width="1.8"/>
  <path d="M19.4 14.95C19.45 14.64 19.48 14.33 19.48 14C19.48 13.67 19.45 13.36 19.4 13.05L21 11.82L19 8.38L17.05 9.19C16.57 8.8 16.03 8.48 15.45 8.24L15.12 6H8.88L8.55 8.24C7.97 8.48 7.43 8.8 6.95 9.19L5 8.38L3 11.82L4.6 13.05C4.55 13.36 4.52 13.67 4.52 14C4.52 14.33 4.55 14.64 4.6 14.95L3 16.18L5 19.62L6.95 18.81C7.43 19.2 7.97 19.52 8.55 19.76L8.88 22H15.12L15.45 19.76C16.03 19.52 16.57 19.2 17.05 18.81L19 19.62L21 16.18L19.4 14.95Z" stroke="#0F5132" stroke-width="1.4" stroke-linejoin="round"/>
</svg>
